<svg xmlns="http://www.w3.org/2000/svg" version="1.1" xmlns:xlink="http://www.w3.org/1999/xlink" xmlns:svgjs="http://svgjs.dev/svgjs" width="500" height="500"><svg version="1.1" id="SvgjsSvg1143" xmlns="http://www.w3.org/2000/svg" xmlns:xlink="http://www.w3.org/1999/xlink" x="0px" y="0px" viewBox="0 0 500 500" style="enable-background:new 0 0 500 500;" xml:space="preserve">
<style type="text/css">
	.st0{fill:url(#SVGID_1_);}
	.st1{fill:#FFFFFF;}
</style>
<linearGradient id="SvgjsLinearGradient1142" gradientUnits="userSpaceOnUse" x1="133.5006" y1="370.0431" x2="396.5006" y2="99.0431">
	<stop offset="3.079788e-03" style="stop-color:#FF004F"></stop>
	<stop offset="0.9992" style="stop-color:#FF7C36"></stop>
</linearGradient>
<path class="st0" d="M437,0H63C28.2,0,0,28.2,0,63v374c0,34.8,28.2,63,63,63h374c34.8,0,63-28.2,63-63V63C500,28.2,471.8,0,437,0z"></path>
<path class="st1" d="M372.1,23.7L250,23.8l-122.1-0.1c-20.2,0-36.7,16.4-36.7,36.7v58.9v40.9h96.3v316h29.4h66.5h29.4v-316h96.3
	v-40.9V60.5C408.9,40.1,392.3,23.7,372.1,23.7z M373.3,120.8H277v310.4c0,8-4.2,11.8-11.8,11.8h-30.5c-7.6,0-11.8-3.8-11.8-11.8
	V120.8h-96.3V68.8c0-8,4.4-11.8,11.8-11.8h78.3h66.5h78.3c7.4,0,11.8,3.8,11.8,11.8V120.8z"></path>
</svg><style>@media (prefers-color-scheme: light) { :root { filter: none; } }
@media (prefers-color-scheme: dark) { :root { filter: none; } }
</style></svg>