<?xml version="1.0" encoding="utf-8"?>
<!-- Generator: Adobe Illustrator 28.0.0, SVG Export Plug-In . SVG Version: 6.00 Build 0)  -->
<svg version="1.1" id="SvgjsSvg1143" xmlns:svgjs="http://svgjs.dev/svgjs"
	 xmlns="http://www.w3.org/2000/svg" xmlns:xlink="http://www.w3.org/1999/xlink" x="0px" y="0px" viewBox="0 0 500 500"
	 style="enable-background:new 0 0 500 500;" xml:space="preserve">
<style type="text/css">
	.st0{fill:#FF5E00;}
	.st1{fill:#FFFFFF;}
</style>
<path class="st0" d="M366.5,22.6l-163,0.1V23L133.5,23C106.2,23,84,45.1,84,72.4v108.6h90.3v296.3h122.2V477h29.3V180.7H416V72.1
	C416,44.8,393.8,22.6,366.5,22.6z"/>
<path class="st1" d="M367.7,128.7h-90.3v291c0,7.5-3.9,11.1-11.1,11.1h-36c-5-1-7.7-4.5-7.7-10.7V129h-90.3V80.3
	c0-7.5,4.1-11.1,11.1-11.1h138.1v-0.3h75.2c6.9,0,11.1,3.6,11.1,11.1V128.7z"/>
</svg>
