<?xml version="1.0" encoding="utf-8"?>
<!-- Generator: Adobe Illustrator 26.2.1, SVG Export Plug-In . SVG Version: 6.00 Build 0)  -->
<svg version="1.1" id="Capa_1" xmlns="http://www.w3.org/2000/svg" xmlns:xlink="http://www.w3.org/1999/xlink" x="0px" y="0px"
	 viewBox="0 0 33 25" style="enable-background:new 0 0 33 25;" xml:space="preserve">
<style type="text/css">
	.st0{fill:#000;}
</style>
<path class="st0" d="M30.68,20.31v1.27c0,0.4-0.22,0.59-0.59,0.59h-6.28c-0.38,0-0.59-0.19-0.59-0.59V6.02h-1.79V3.36
	c0.03-0.37,0.24-0.51,0.59-0.51h4.69v15.98h1.89V7.43h-0.02V1.18L2.69,1.16C1.68,1.16,0.85,1.98,0.85,3v2.95V8h4.82v15.82h6.99v0.02
	h8.67h2.48h6.79c1.03,0,1.86-0.83,1.86-1.86v-1.67H30.68z M7.45,21.56l0-15.54H2.63v-2.6c0-0.4,0.22-0.59,0.59-0.59l7.55,0
	l0.03,19.32H8.04C7.66,22.15,7.45,21.96,7.45,21.56z M15.14,22.17c-0.38,0-0.59-0.19-0.59-0.59V6.02h-1.74V3.23
	c0-0.21,0.17-0.38,0.38-0.38l0,0l4.68,0.03v15.79l3.46,0.01v3.49H15.14z"/>
</svg>
