<svg xmlns="http://www.w3.org/2000/svg" xml:space="preserve" id="Capa_1" x="0" y="0" style="enable-background:new 0 0 700 130" version="1.1" viewBox="0 0 700 130"><style>.st0{fill:#fff}</style><path d="M127.9 127.5H51.2v-.1H21.7V51.1H1.3V25.9c0-5.4 3.8-9.9 8.6-9.9l110.2.1v30.2h.1v56.9h-9.7v-77H91.6c-1.3 0-1.6.6-1.7 1.6v11.9h7.6v76c0 1.3.5 1.9 1.7 1.9h26.5c1.2 0 1.7-.6 1.7-1.9v-7h9.1v9c0 5.4-3.9 9.8-8.6 9.8zm-75.1-1.9h75c3.9 0 7.1-3.6 7.1-8.1v-7.1H129v5.1c0 2.5-1.2 3.8-3.3 3.8H99.2c-2.2 0-3.3-1.4-3.3-3.8v-74h-7.6V27.7c.1-1.6.7-3.4 3.3-3.4h20.5v77.1h6.3V48.3h-.1V18.2L9.9 18.1c-3.8 0-7 3.5-7 8v23.1h20.4v76.4h29.5zm36.7-6.1h-27c-2.2 0-3.3-1.4-3.3-3.8V41.5h-7.3V27.1c0-1.5 1.1-2.8 2.4-2.8l20.6.2v76.2h14.6v18.8zm-36-79.9h7.3v76c0 1.3.5 1.9 1.7 1.9h25.3v-15H73.2V26.4l-18.9-.2c-.4 0-.7.4-.7.9v12.5zM45 119.4H32.5c-2.2 0-3.3-1.4-3.3-3.8v-74H8.8V28c0-2.5 1.2-3.8 3.3-3.8h32.7l.2 95.2zm-14.2-3.9c0 1.3.5 1.9 1.7 1.9h10.9L43.2 26H12.1c-1.2 0-1.7.6-1.7 1.9v11.6h20.4v76zM172.4 82.1h-11.6V28.2h-7.5c-.5 0-.8.2-.8 1V34h-10.4V23c0-4.7 1.7-6.7 5.7-6.7h37.6c4.1 0 5.7 1.9 5.7 6.7v11h-10.4v-4.8c0-.9-.3-1-.8-1h-7.5v53.9zm-9.9-1.9h8.3V26.3h9.1c1.5 0 2.5 1.1 2.5 2.9v2.9h7.1V23c0-3.8-.8-4.8-4.1-4.8h-37.6c-3.2 0-4.1 1-4.1 4.8v9.1h7.1v-2.9c0-1.8 1-2.9 2.5-2.9h9.1l.1 53.9zM232.3 82.1h-24.4c-4.1 0-6-2.3-6-7V28.2h-5V16.3h33.4c4.1 0 6 2.3 6 7V34h-10.7v-4.8c0-.9-.3-1-.8-1h-11.3V43H231v11.9h-17.5v14.2c0 .9.3 1 .8 1h12.5c.5 0 .8-.2.8-1v-4.8h10.7v10.6c0 4.9-1.9 7.2-6 7.2zm-33.7-55.8h4.9v48.8c0 3.8 1.2 5.1 4.3 5.1h24.4c3.2 0 4.3-1.4 4.3-5.1v-8.7h-7.4v2.9c0 1.8-1 2.9-2.5 2.9h-12.5c-1.5 0-2.5-1.1-2.5-2.9V53.2h17.5v-8.3h-17.5V26.3h13c1.5 0 2.5 1.1 2.5 2.9v2.9h7.4v-8.7c0-3.7-1.2-5.1-4.3-5.1h-31.7v8zM279.4 82.1h-23.8c-4.1 0-6-2.3-6-7V29.2c0-.9-.3-1-.8-1h-4.1V16.3h10.6c4.1 0 6 2.3 6 7v45.8c0 .9.3 1 .8 1h11.8c.5 0 .8-.2.8-1v-4.8h10.7V75c0 4.8-1.9 7.1-6 7.1zm-33.1-55.8h2.4c1.5 0 2.5 1.1 2.5 2.9V75c0 3.8 1.2 5.1 4.3 5.1h23.8c3.2 0 4.3-1.3 4.3-5.1v-8.7h-7.4v2.9c0 1.8-1 2.9-2.5 2.9h-11.8c-1.5 0-2.5-1.1-2.5-2.9V23.4c0-3.8-1.2-5.1-4.3-5.1h-8.9l.1 8zM323.2 82.1h-23.8c-4.1 0-6-2.3-6-7V29.2c0-.9-.3-1-.8-1h-4.1V16.3h10.6c4.1 0 6 2.3 6 7v45.8c0 .9.3 1 .8 1h11.8c.5 0 .8-.2.8-1v-4.8h10.7V75c0 4.8-1.9 7.1-6 7.1zm-33-55.8h2.4c1.5 0 2.5 1.1 2.5 2.9V75c0 3.8 1.2 5.1 4.3 5.1h23.8c3.2 0 4.3-1.3 4.3-5.1v-8.7h-7.4v2.9c0 1.8-1 2.9-2.5 2.9h-11.8c-1.5 0-2.5-1.1-2.5-2.9V23.4c0-3.8-1.2-5.1-4.3-5.1h-8.9l.1 8zM377.9 83.1c-12.2 0-18.9-9.9-19.2-10.2l-.4-.6 6.6-9.8.7.9c.1.1 5.4 7.2 12.5 7.2 3.4 0 6.9-2.1 6.9-6.6 0-4-4.3-6.4-9.4-9.1-7.1-3.9-16-8.7-16-20.7 0-11 7.9-19 18.9-19 6.5 0 16.9 3.7 16.9 13.6v6.9h-10.6v-3.8c0-2.4-3.2-4-6.3-4-4.2 0-7.1 2.5-7.1 5.9 0 4 4.2 6.1 9.1 8.6 7.2 3.7 16.2 8.3 16.2 21.1-.1 11.6-7.8 19.6-18.8 19.6zm-17.5-10.8c1.6 2 7.7 9 17.5 9C388 81.3 395 74 395 63.5c0-11.6-8.1-15.7-15.3-19.3-5.4-2.8-10.1-5.1-10.1-10.3 0-4.6 3.7-7.8 8.7-7.8 3.9 0 8 2.2 8 5.9v1.9h7.3v-5c0-8.4-9.3-11.7-15.2-11.7-10 0-17.2 7.2-17.2 17.1 0 10.8 8 15.2 15 19 5.6 3 10.3 5.6 10.3 10.8 0 5-3.5 8.5-8.6 8.5-6.3 0-11.2-5-13-7l-4.5 6.7zM439.5 82.1h-24.4c-4.1 0-6-2.3-6-7V28.2h-4.9V16.3h33.4c4.1 0 6 2.3 6 7V34h-10.7v-4.8c0-.9-.3-1-.8-1h-11.3V43h17.5v11.9h-17.5v14.2c0 .9.3 1 .8 1H434c.5 0 .8-.2.8-1v-4.8h10.7v10.6c0 4.9-1.9 7.2-6 7.2zm-33.7-55.8h4.9v48.8c0 3.8 1.2 5.1 4.3 5.1h24.4c3.2 0 4.3-1.4 4.3-5.1v-8.7h-7.4v2.9c0 1.8-1 2.9-2.5 2.9h-12.5c-1.5 0-2.5-1.1-2.5-2.9V53.2h17.5v-8.3h-17.5V26.3h13c1.5 0 2.5 1.1 2.5 2.9v2.9h7.4v-8.7c0-3.7-1.2-5.1-4.3-5.1h-31.7l.1 8zM501.9 82.1h-10.1L471 46.4c-1-1.6-1.9-3.6-2.7-5.2.1 1.5.2 3.2.2 4.7V75c0 4.8-1.9 7-6 7h-10.6V70.2h4.1c.5 0 .8-.2.8-1V16.3H467l20.7 35.8c1 1.7 1.9 3.6 2.7 5.3-.1-1.5-.2-3.3-.2-4.7V23.4c0-4.8 1.9-7 6-7h10.6v11.9h-4.1c-.5 0-.8.2-.8 1v52.8zm-9.3-1.9h7.6v-51c0-1.8 1-2.9 2.5-2.9h2.4v-8.1h-8.9c-3.2 0-4.3 1.4-4.3 5.1v29.2c0 3.6.5 8.8.5 8.9l.1 1H491l-.2-.5c0-.1-2.3-5.3-4.4-8.9l-20.2-34.9h-7.6V69c0 1.8-1 2.9-2.5 2.9h-2.4V80h8.9c3.2 0 4.3-1.3 4.3-5.1V45.8c0-3.6-.5-8.8-.5-8.9l-.1-1h1.6l.2.6c0 .1 2.3 5.4 4.4 8.9l20.1 34.8zm-7.5-66c-3.2 0-5.2-2.1-6.7-3.7-1.1-1.2-2-2.1-3-2.1-1.7 0-2.2 2.5-2.2 4.6v1h-7.7v-1c0-11 5.2-13.3 9.5-13.3 3.2 0 5.2 2.1 6.7 3.7 1.1 1.2 2 2.1 3 2.1 1.6 0 2.2-2.4 2.2-4.6V0h7.6v.9c0 11-5.1 13.3-9.4 13.3zm-9.8-7.8c1.7 0 2.9 1.3 4.2 2.7 1.4 1.6 2.9 3.2 5.6 3.2 5.1 0 7.6-3.4 7.8-10.4h-4.3c-.2 3.4-1.7 5.6-3.9 5.6-1.7 0-2.9-1.3-4.2-2.7-1.4-1.6-2.9-3.2-5.6-3.2-5.1 0-7.6 3.4-7.8 10.4h4.3c.2-3.4 1.7-5.6 3.9-5.6zM563.6 82.1h-6.7c-4.2 0-5.8-1.3-7.1-5.9l-3.2-10.4h-17l-3.2 10.4c-1.3 4.5-3 5.9-7.1 5.9h-6.8V70.2h2.1c1 0 1.2-.1 1.6-1.3l16.2-52.5H544l16 52.5c.3 1.2.6 1.3 1.6 1.3h2.1l-.1 11.9zm-35.3-18.2h19.4l3.6 11.8c1.1 3.7 2.2 4.6 5.6 4.6h5.1v-8.1h-.4c-1.5 0-2.5-.5-3.2-2.7l-15.8-51.2h-9.2l-15.9 51.3c-.6 2.2-1.7 2.7-3.2 2.7h-.4v8.1h5.2c3.4 0 4.4-.9 5.5-4.6l3.7-11.9zM546 56h-16l5-17.3c1-3.4 2.1-9.4 2.1-9.5l.2-.8h1.5l.2.8c0 .1 1.2 6 2.1 9.5L546 56zm-13.7-1.9h11.4l-4.2-14.8c-.5-1.7-1-4.1-1.4-6-.4 1.9-.9 4.3-1.4 6l-4.4 14.8zM603.8 82.1H580c-4.1 0-6-2.3-6-7V29.2c0-.9-.3-1-.8-1h-4.1V16.3h10.6c4.1 0 6 2.3 6 7v45.8c0 .9.3 1 .8 1h11.8c.5 0 .8-.2.8-1v-4.8h10.7V75c.1 4.8-1.8 7.1-6 7.1zm-33-55.8h2.4c1.5 0 2.5 1.1 2.5 2.9V75c0 3.8 1.2 5.1 4.3 5.1h23.8c3.2 0 4.3-1.3 4.3-5.1v-8.7h-7.3v2.9c0 1.8-1 2.9-2.5 2.9h-11.8c-1.5 0-2.5-1.1-2.5-2.9V23.4c0-3.8-1.2-5.1-4.3-5.1h-8.9v8zM648.4 82.1H624c-4.1 0-6-2.3-6-7V28.2h-4.9V16.3h33.4c4.1 0 6 2.3 6 7V34h-10.7v-4.8c0-.9-.3-1-.8-1h-11.3V43H647v11.9h-17.5v14.2c0 .9.3 1 .8 1h12.5c.5 0 .8-.2.8-1v-4.8h10.7v10.6c.1 4.9-1.8 7.2-5.9 7.2zm-33.8-55.8h4.9v48.8c0 3.8 1.2 5.1 4.3 5.1h24.4c3.2 0 4.3-1.4 4.3-5.1v-8.7h-7.4v2.9c0 1.8-1 2.9-2.5 2.9h-12.5c-1.5 0-2.5-1.1-2.5-2.9V53.2h17.5v-8.3h-17.5V26.3h13c1.5 0 2.5 1.1 2.5 2.9v2.9h7.4v-8.7c0-3.7-1.2-5.1-4.3-5.1h-31.7l.1 8zM680 83.1c-12.2 0-18.9-9.9-19.2-10.2l-.4-.6 6.6-9.8.7.9c.1.1 5.4 7.2 12.5 7.2 3.4 0 6.9-2.1 6.9-6.6 0-4-4.3-6.4-9.4-9.1-7.1-3.9-16-8.7-16-20.7 0-11 7.9-19 18.9-19 6.5 0 16.9 3.7 16.9 13.6v6.9h-10.6v-3.8c0-2.4-3.2-4-6.3-4-4.2 0-7.1 2.5-7.1 5.9 0 4 4.2 6.1 9.1 8.6 7.2 3.7 16.2 8.3 16.2 21.1-.1 11.6-7.8 19.6-18.8 19.6zm-17.6-10.8c1.6 2 7.7 9 17.5 9C690 81.3 697 74 697 63.5c0-11.6-8.1-15.7-15.3-19.3-5.4-2.8-10.1-5.1-10.1-10.3 0-4.6 3.7-7.8 8.7-7.8 3.9 0 8 2.2 8 5.9v1.9h7.3v-5c0-8.4-9.3-11.7-15.2-11.7-10 0-17.2 7.2-17.2 17.1 0 10.8 8 15.2 15 19 5.6 3 10.3 5.6 10.3 10.8 0 5-3.5 8.5-8.6 8.5-6.3 0-11.2-5-13-7l-4.5 6.7zM167.7 123.7H164v-27h-6.8v-4.3h17.4v4.3h-6.8v27zm-2.9-.9h2.1v-27h6.8v-2.4H158v2.4h6.8v27zM209.4 123.7H196V92.4h12.9v4.3h-9.1v8.6h8.6v4.2h-8.6v10h9.6v4.2zm-12.5-.9h11.7v-2.4H199v-11.9h8.6v-2.3H199V95.7h9.1v-2.4h-11.2v29.5zM245.4 123.7h-13.2V92.4h3.7v27h9.6l-.1 4.3zm-12.4-.9h11.6v-2.4H235v-27h-2.1l.1 29.4zM280.9 123.7h-13.3V92.4h3.7v27h9.6v4.3zm-12.5-.9H280v-2.4h-9.6v-27h-2.1v29.4zM308.1 124.2c-2.2 0-4.7-.9-6-2.1l-.2-.2.9-4.3.5.4c1.4 1.1 3.2 1.9 4.9 1.9 2.7 0 4.2-1.8 4.2-4.7 0-2.6-1-4.1-4-5.6-4.2-2-6.1-4.9-6.1-9 0-5.1 3.2-8.7 7.6-8.7 2.7 0 4.4.9 5.2 1.6l.2.2-1 4.2-.5-.4c-.8-.7-2.2-1.3-4-1.3-2.6 0-3.8 2.1-3.8 4.1 0 2.5 1 3.8 4.2 5.4 4.2 2.2 5.9 5 5.9 9.4.2 4.1-2 9.1-8 9.1zm-5.3-2.7c1.2.9 3.3 1.6 5.2 1.6 5.5 0 7.4-4.5 7.4-8.3 0-4-1.6-6.4-5.5-8.4-3-1.6-4.7-3-4.7-6.3 0-2.5 1.4-5 4.7-5 1.7 0 3.1.6 4 1.2l.6-2.3c-.7-.6-2.2-1.2-4.4-1.2-4 0-6.8 3.2-6.8 7.8 0 3.7 1.8 6.4 5.7 8.2 3.2 1.7 4.5 3.5 4.5 6.4 0 3.4-2 5.7-5.1 5.7-1.7 0-3.4-.6-4.9-1.7l-.7 2.3zM352.6 123.7h-13.4V92.4h12.9v4.3H343v8.6h8.6v4.2H343v10h9.6v4.2zm-12.5-.9h11.7v-2.4h-9.6v-11.9h8.6v-2.3h-8.6V95.7h9.1v-2.4h-11.2v29.5zM392.9 123.7h-3.6l-7.2-15.7c-1.4-3-2.5-5.7-3.4-8 .1 3 .2 6.2.2 10.2v13.5h-3.6V92.5h3.8l7.2 15.7c1.2 2.6 2.2 5 3.2 7.5-.2-3.2-.2-6.4-.2-9.9V92.4h3.6v31.3zm-3.1-.9h2.2V93.4h-1.9v12.2c0 4.5.1 8.3.3 12.4v.3l-.7.5-.2-.5c-1.1-3.1-2.4-6.4-4-9.8l-7.1-15.1H376v29.4h1.9v-12.5c0-5-.1-8.7-.2-12.5v-.4l.7-.4.2.5c1 2.8 2.3 6.1 4.2 10.1l7 15.2zM434.9 123.7H431l-2.4-9.6h-7.3l-2.3 9.6h-3.8l7.8-31.3h4.1l7.8 31.3zm-3.3-.9h2.2l-7.4-29.4h-2.8l-7.3 29.4h2.1l2.3-9.6h8.6l2.3 9.6zm-2.8-11.7H421l2.3-9.4c.3-1.6.7-3.3 1.1-5.5l.1-.4h.7l.2.4.1.3c.3 1.6.7 3.3 1.1 5.2l2.2 9.4zm-6.7-.9h5.7l-2-8.2c-.3-1.2-.6-2.5-.8-3.6-.2 1.3-.5 2.5-.7 3.5l-2.2 8.3zM470.3 123.7h-13.2V92.4h3.7v27h9.6l-.1 4.3zm-12.5-.9h11.6v-2.4h-9.6v-27h-2.1l.1 29.4zM505.8 123.7h-13.4V92.4h12.9v4.3h-9.1v8.6h8.6v4.2h-8.6v10h9.6v4.2zm-12.5-.9H505v-2.4h-9.6v-11.9h8.6v-2.3h-8.6V95.7h9.1v-2.4h-11.2v29.5zM533.6 124.2c-2.2 0-4.7-.9-6-2.1l-.2-.2.9-4.3.5.4c1.4 1.1 3.2 1.9 4.9 1.9 2.7 0 4.2-1.8 4.2-4.7 0-2.6-1-4.1-4-5.6-4.2-2-6.1-4.9-6.1-9 0-5.1 3.2-8.7 7.6-8.7 2.7 0 4.4.9 5.2 1.6l.2.2-1 4.2-.5-.4c-.8-.7-2.2-1.3-4-1.3-2.6 0-3.8 2.1-3.8 4.1 0 2.5 1 3.8 4.2 5.4 4.2 2.2 5.9 5 5.9 9.4.2 4.1-1.9 9.1-8 9.1zm-5.2-2.7c1.2.9 3.3 1.6 5.2 1.6 5.5 0 7.4-4.5 7.4-8.3 0-4-1.6-6.4-5.5-8.4-3-1.6-4.7-3-4.7-6.3 0-2.5 1.4-5 4.7-5 1.7 0 3.1.6 4 1.2l.6-2.3c-.7-.6-2.2-1.2-4.4-1.2-4 0-6.8 3.2-6.8 7.8 0 3.7 1.8 6.4 5.7 8.2 3.2 1.7 4.5 3.5 4.5 6.4 0 3.4-2 5.7-5.1 5.7-1.7 0-3.4-.6-4.9-1.7l-.7 2.3zM566.4 124.2c-1.4 0-2.3-1.4-2.3-3.3s1-3.3 2.4-3.3 2.3 1.3 2.3 3.3c-.1 2-1 3.3-2.4 3.3zm0-5.7c-.9 0-1.6.9-1.6 2.4s.7 2.4 1.5 2.4c1.1 0 1.6-1.2 1.6-2.4-.1-1.4-.6-2.4-1.5-2.4zM601.5 124.2c-7 0-11.5-6.3-11.5-15.8 0-9.9 4.8-16.4 12.1-16.4 3.2 0 5.1 1 5.5 1.4l.2.2-.9 4.2-.5-.3c-1.2-.8-2.7-1.2-4.3-1.2-5.1 0-8.3 4.6-8.3 12 0 7.3 3.1 11.8 8.1 11.8 1.7 0 3.4-.5 4.5-1.2l.5-.3.7 4.1-.2.2c-.8.4-3 1.3-5.9 1.3zm.7-31.3c-6.7 0-11.2 6.3-11.2 15.5 0 9 4.2 14.9 10.6 14.9 2.5 0 4.4-.7 5.4-1.2l-.4-2.2c-1.2.7-2.8 1-4.4 1-5.6 0-9-4.8-9-12.7 0-8.1 3.5-13 9.1-13 1.5 0 3 .4 4.2 1l.5-2.3c-.7-.3-2.3-1-4.8-1zM638.9 124.2c-6.1 0-10.5-6.5-10.5-15.8 0-9.7 4.4-16.4 10.8-16.4 6.2 0 10.5 6.4 10.5 15.8-.1 11.4-5.5 16.4-10.8 16.4zm.3-31.3c-5.8 0-10 6.4-10 15.5 0 8.8 4 14.9 9.6 14.9 6.1 0 10-6.1 10-15.6 0-8.8-3.8-14.8-9.6-14.8zm-.1 28.1c-4.9 0-7.6-6.4-7.6-12.8 0-6.5 2.3-13.1 7.6-13.1 5.2 0 7.6 6.6 7.6 12.8-.1 7.9-3.1 13.1-7.6 13.1zm0-25c-4.7 0-6.7 6.2-6.7 12.1 0 5.9 2.3 11.9 6.7 11.9 4.7 0 6.7-6.3 6.7-12.1 0-5.7-2.2-11.9-6.7-11.9zM695.4 123.7h-3.7l-.6-13.8c-.1-3-.2-6.6-.3-9.9-.6 2.6-1.3 5.4-2.1 8.4l-4 15.1H682l-3.7-14.8c-.8-3.2-1.4-6-1.9-8.3-.1 3-.2 6.5-.3 9.9l-.6 13.5h-3.6l1.6-31.3h4.4l3.9 15c.8 3.3 1.4 6 1.9 8.4.5-2.4 1.1-5 2-8.4l4.1-15h4.4l1.2 31.2zm-2.8-.9h2l-1.3-29.4h-3l-3.9 14.3c-1.1 4.3-1.8 7.4-2.3 10.1l-.1.4h-.8l-.1-.4c-.5-2.8-1.2-6-2.2-10.1L677 93.4h-3l-1.5 29.4h1.9l.6-12.6c.2-4.6.3-9.7.4-13.4v-.5h.7l.2.4c.6 3.2 1.3 6.8 2.6 11.8l3.5 14.1h1.6l3.8-14.4c1.2-4.3 2.1-8.1 2.8-11.5l.1-.4h.8v.5c0 3.8.2 8.9.3 13.1l.8 12.9z" class="st0"/></svg>